HIERARCHY
ROOT SpineBase
{
  OFFSET 0.000000 0.000000 0.000000
  CHANNELS 6 Xposition Yposition Zposition Zrotation Xrotation Yrotation
  JOINT SpineMid
  {
    OFFSET -0.000000 28.193149 0.000000
    CHANNELS 3 Zrotation Xrotation Yrotation
    JOINT SpineShoulder
    {
      OFFSET 0.352024 21.055916 -0.308186
      CHANNELS 3 Zrotation Xrotation Yrotation
      JOINT Neck
      {
        OFFSET 0.153007 7.004688 -0.437836
        CHANNELS 3 Zrotation Xrotation Yrotation
        JOINT Head
        {
          OFFSET -1.534727 12.257066 1.749783
          CHANNELS 3 Zrotation Xrotation Yrotation
          End Site
          {
            OFFSET 0 0 0
          }
        }
      }
      JOINT ShoulderLeft
      {
        OFFSET -14.829933 -3.288912 5.069881
        CHANNELS 3 Zrotation Xrotation Yrotation
        JOINT ElbowLeft
        {
          OFFSET -3.435454 -25.005156 -4.953276
          CHANNELS 3 Zrotation Xrotation Yrotation
          JOINT WristLeft
          {
            OFFSET -4.716798 -13.324757 -7.527063
            CHANNELS 3 Zrotation Xrotation Yrotation
            JOINT HandLeft
            {
              OFFSET -1.744237 -3.900640 -1.312056
              CHANNELS 3 Zrotation Xrotation Yrotation
              JOINT HandTipLeft
              {
                OFFSET 1.457160 -1.774817 -1.622367
                CHANNELS 3 Zrotation Xrotation Yrotation
                End Site
                {
                  OFFSET 0 0 0
                }
              }
              JOINT ThumbLeft
              {
                OFFSET -0.601093 1.332549 -0.602246
                CHANNELS 3 Zrotation Xrotation Yrotation
                End Site
                {
                  OFFSET 0 0 0
                }
              }
            }
          }
        }
      }
      JOINT ShoulderRight
      {
        OFFSET 12.423900 -3.380033 -8.106219
        CHANNELS 3 Zrotation Xrotation Yrotation
        JOINT ElbowRight
        {
          OFFSET 11.117552 -18.717249 -4.858218
          CHANNELS 3 Zrotation Xrotation Yrotation
          JOINT WristRight
          {
            OFFSET -13.342699 -7.530744 -11.452880
            CHANNELS 3 Zrotation Xrotation Yrotation
            JOINT HandRight
            {
              OFFSET -3.915503 1.001393 4.849314
              CHANNELS 3 Zrotation Xrotation Yrotation
              JOINT HandTipRight
              {
                OFFSET -6.177305 -0.670414 2.397586
                CHANNELS 3 Zrotation Xrotation Yrotation
                End Site
                {
                  OFFSET 0 0 0
                }
              }
              JOINT ThumbRight
              {
                OFFSET -3.241649 4.302400 -0.527689
                CHANNELS 3 Zrotation Xrotation Yrotation
                End Site
                {
                  OFFSET 0 0 0
                }
              }
            }
          }
        }
      }
    }
  }
  JOINT HipLeft
  {
    OFFSET -5.885518 0.436382 0.407552
    CHANNELS 3 Zrotation Xrotation Yrotation
    JOINT KneeLeft
    {
      OFFSET 2.587837 -27.202643 2.170801
      CHANNELS 3 Zrotation Xrotation Yrotation
      JOINT AnkleLeft
      {
        OFFSET 3.892891 -34.838998 6.310257
        CHANNELS 3 Zrotation Xrotation Yrotation
        JOINT FootLeft
        {
          OFFSET -4.341163 -2.880984 -11.629134
          CHANNELS 3 Zrotation Xrotation Yrotation
          End Site
          {
            OFFSET 0 0 0
          }
        }
      }
    }
  }
  JOINT HipRight
  {
    OFFSET 5.380435 1.310548 -6.946847
    CHANNELS 3 Zrotation Xrotation Yrotation
    JOINT KneeRight
    {
      OFFSET 2.578111 -30.032800 4.171371
      CHANNELS 3 Zrotation Xrotation Yrotation
      JOINT AnkleRight
      {
        OFFSET 1.972759 -31.468922 5.418095
        CHANNELS 3 Zrotation Xrotation Yrotation
        JOINT FootRight
        {
          OFFSET -5.156570 -4.091237 -5.757256
          CHANNELS 3 Zrotation Xrotation Yrotation
          End Site
          {
            OFFSET 0 0 0
          }
        }
      }
    }
  }
}
MOTION
Frames: 14
Frame Time: 0.033333
30.068573 72.831184 368.524371 0.000000 0.000000 33.136447 -0.000000 0.000000 -33.136447 -0.000000 0.000000 0.000000 -0.000000 0.000000 0.000000 0.000000 0.000000 0.000000 -0.000000 0.000000 0.000000 -0.000000 0.000000 0.000000 -0.000000 0.000000 0.000000 -0.000000 0.000000 0.000000 0.000000 0.000000 0.000000 0.000000 0.000000 0.000000 -0.000000 0.000000 0.000000 -0.000000 0.000000 0.000000 -0.000000 0.000000 0.000000 -0.000000 0.000000 0.000000 0.000000 0.000000 0.000000 0.000000 0.000000 0.000000 -0.000000 0.000000 -33.136447 -0.000000 0.000000 0.000000 -0.000000 0.000000 0.000000 0.000000 0.000000 0.000000 -0.000000 0.000000 -33.136447 -0.000000 0.000000 0.000000 -0.000000 0.000000 0.000000 0.000000 0.000000 0.000000
30.123993 72.907953 368.651363 0.015682 -0.253877 32.918481 0.124804 0.221637 -32.918687 -0.000000 0.000000 0.000000 -0.000000 0.000000 0.000000 0.000000 0.000000 0.000000 -2.491113 1.870585 0.275481 13.005320 -11.977168 -1.404437 7.617489 -4.600844 3.439493 -31.290056 -1.371990 2.795713 0.000000 0.000000 0.000000 0.000000 0.000000 0.000000 3.120904 2.100856 0.372693 -11.171144 2.852911 2.663400 10.143403 -0.556787 4.193025 -5.830653 -4.611707 -12.608233 0.000000 0.000000 0.000000 0.000000 0.000000 0.000000 0.124804 0.221637 -32.918687 0.799349 0.427185 0.189519 -0.800780 -0.424497 -0.195466 0.000000 0.000000 0.000000 0.124804 0.221637 -32.918687 -0.000000 0.000000 0.000000 2.023674 -5.768651 4.993148 0.000000 0.000000 0.000000
30.199736 72.979823 368.770836 0.060299 -0.478468 32.619305 0.207136 0.435503 -32.619840 0.383965 -0.726595 0.042293 -0.383459 0.726862 -0.037426 0.000000 0.000000 0.000000 -5.131832 4.205139 0.622910 22.926971 -20.798575 -0.624104 13.205558 -6.347492 5.292228 -49.070563 -1.419545 9.043543 0.000000 0.000000 0.000000 0.000000 0.000000 0.000000 5.700153 4.661269 0.418884 -21.030773 4.958751 4.983091 18.300309 -1.610369 7.447112 -12.805719 -6.628897 -26.396507 0.000000 0.000000 0.000000 0.000000 0.000000 0.000000 0.207136 0.435503 -32.619840 1.445750 0.764393 0.337578 -1.450355 -0.755618 -0.356787 0.000000 0.000000 0.000000 0.207136 0.435503 -32.619840 -0.000000 0.000000 0.000000 4.812182 -11.558026 10.323211 0.000000 0.000000 0.000000
30.295800 73.046793 368.882791 0.133961 -0.673619 32.238987 0.246042 0.641228 -32.239576 0.570531 -1.012934 0.062804 0.027088 0.107210 -0.257355 0.000000 0.000000 0.000000 -7.165731 5.694380 0.982504 30.216446 -26.711676 0.921030 16.202014 -6.263618 5.619480 -58.986892 -2.839263 13.948260 0.000000 0.000000 0.000000 0.000000 0.000000 0.000000 8.244295 6.434353 0.291504 -29.051660 6.306423 6.795060 24.436698 -2.489878 9.858496 -20.352816 -5.800384 -41.681878 0.000000 0.000000 0.000000 0.000000 0.000000 0.000000 0.119405 1.484538 -32.220225 2.492153 0.361836 0.454003 -1.943462 -0.992178 -0.479897 0.000000 0.000000 0.000000 0.323121 1.814154 -32.230373 0.560409 -1.033281 -0.005801 8.213515 -16.864306 15.670084 0.000000 0.000000 0.000000
30.412185 73.108862 368.987227 0.236772 -0.839185 31.777607 0.241622 -0.199318 -31.754895 0.206070 -0.366576 0.052390 -0.021998 -0.007260 -0.335806 0.000000 0.000000 0.000000 -8.601572 6.596282 1.269988 35.065776 -30.341368 2.363866 17.637957 -5.388897 4.915487 -64.604984 -4.966763 17.071590 0.000000 0.000000 0.000000 0.000000 0.000000 0.000000 10.493468 7.739205 -0.010558 -35.057145 6.999801 8.093179 28.719101 -2.862270 11.404402 -26.777675 -2.753926 -56.324731 0.000000 0.000000 0.000000 0.000000 0.000000 0.000000 0.003988 1.927990 -31.757462 3.040317 0.353075 0.539119 -2.276393 -1.133572 -0.561796 0.000000 0.000000 0.000000 0.209624 2.438067 -31.782094 0.869243 -1.343682 0.015541 11.901499 -21.294794 20.617151 0.000000 0.000000 0.000000
30.548893 73.166032 369.084144 0.368826 -0.975031 31.235272 0.257086 -0.257629 -31.205956 0.210166 -0.369374 0.062237 -0.099868 -0.198018 -0.410154 0.000000 0.000000 0.000000 -9.272158 6.802919 1.411542 37.486380 -32.159802 3.215490 18.222227 -4.105395 3.470921 -67.734423 -7.497797 18.811383 0.000000 0.000000 0.000000 0.000000 0.000000 0.000000 12.384761 8.526352 -0.443082 -39.050720 7.144630 8.959721 31.361474 -2.607704 12.048994 -30.546072 0.019781 -66.397669 0.000000 0.000000 0.000000 0.000000 0.000000 0.000000 -0.191139 2.342922 -31.214745 3.443724 0.275562 0.589601 -2.446954 -1.179657 -0.600597 0.000000 0.000000 0.000000 -0.019421 3.066225 -31.257818 1.238763 -1.636030 0.049156 15.475404 -24.683148 24.752735 0.000000 0.000000 0.000000
30.602969 73.199170 369.141105 0.402012 -1.021867 30.487306 0.288483 -0.367856 -30.453886 0.232862 -0.311136 0.067974 -0.202941 -0.707590 -0.493336 0.000000 0.000000 0.000000 -8.832401 5.578330 1.352899 33.077776 -28.231722 1.094201 17.729756 -4.463072 3.190492 -64.605406 -6.546826 18.925571 0.000000 0.000000 0.000000 0.000000 0.000000 0.000000 13.561717 8.538237 -0.911743 -39.779843 8.037201 7.586182 32.071671 -0.803406 13.554526 -29.957116 -1.619673 -69.116963 0.000000 0.000000 0.000000 0.000000 0.000000 0.000000 -0.181849 2.425568 -30.460219 3.237483 0.017532 0.531755 -2.261731 -0.973068 -0.538009 0.000000 0.000000 0.000000 -0.141533 3.468440 -30.515774 1.481145 -1.894235 0.067369 14.431683 -22.234417 19.003937 0.000000 0.000000 0.000000
30.749055 73.250306 369.217811 0.569313 -1.087934 29.692394 0.268915 -0.419487 -29.652197 0.202218 -0.239488 0.073163 -0.317522 -1.153729 -0.565510 0.000000 0.000000 0.000000 -7.249500 3.996993 1.050323 30.208217 -26.665541 0.508327 17.395009 -2.333030 0.595158 -65.348393 -10.194307 20.027923 0.000000 0.000000 0.000000 0.000000 0.000000 0.000000 14.947601 8.051052 -1.641312 -38.776552 6.879416 7.074557 31.632567 2.386174 11.052561 -28.715998 -7.145574 -59.192836 0.000000 0.000000 0.000000 0.000000 0.000000 0.000000 -0.451601 2.690938 -29.665059 3.099958 -0.221412 0.467960 -1.671173 -1.070117 -1.178681 0.000000 0.000000 0.000000 -0.598287 4.058814 -29.746453 1.963830 -2.139126 0.125298 17.559329 -25.085306 22.390738 0.000000 0.000000 0.000000
30.992247 73.303995 369.302994 0.845823 -1.168198 28.988143 0.211848 -0.480215 -28.937212 0.120067 -0.144411 0.078890 -0.452660 -1.407613 -0.619513 0.000000 0.000000 0.000000 -4.101737 1.621020 0.514056 25.197719 -26.696789 1.902668 18.001804 7.652050 -11.125901 -65.448786 -20.494148 17.591988 0.000000 0.000000 0.000000 0.000000 0.000000 0.000000 15.622115 7.152156 -2.326821 -35.920495 4.632787 7.297833 29.450827 5.474992 7.423594 -19.783178 -10.983689 -54.748533 0.000000 0.000000 0.000000 0.000000 0.000000 0.000000 -1.063524 3.154920 -28.967972 3.380859 -0.346127 0.464874 -1.425991 -1.026069 -1.371053 0.000000 0.000000 0.000000 -1.301584 4.778397 -29.074308 2.613341 -2.375372 0.212263 25.449094 -31.166143 33.345662 0.000000 0.000000 0.000000
31.284569 73.348870 369.396811 1.166902 -1.226821 28.267692 0.143958 -0.545812 -28.204303 0.033249 -0.036558 0.085527 -0.620027 -1.624973 -0.666509 0.000000 0.000000 0.000000 -2.653551 -0.171079 0.368789 22.604052 -27.456949 3.319557 19.423841 17.640235 -21.687241 -67.709915 -34.347937 10.259009 0.000000 0.000000 0.000000 0.000000 0.000000 0.000000 15.096172 6.033231 -2.732739 -33.388123 2.241613 9.818514 28.779766 7.200575 1.657003 -20.663658 -12.499607 -44.340475 0.000000 0.000000 0.000000 0.000000 0.000000 0.000000 -1.875489 3.714750 -28.250935 3.987379 -0.703280 0.485684 -1.637367 1.144068 -3.018374 0.000000 0.000000 0.000000 -2.069756 5.514777 -28.374080 3.274533 -2.641036 0.301976 26.407312 -31.495900 33.118886 0.000000 0.000000 0.000000
31.565081 73.391044 369.484226 1.470583 -1.246513 27.645289 0.095322 -0.639731 -27.569508 -0.025829 0.076810 0.093500 -0.894764 -1.906007 -0.708892 0.000000 0.000000 0.000000 -2.016306 -1.266753 0.323533 21.480797 -29.070258 4.960589 21.918252 27.134369 -31.733444 -74.293414 -47.857380 -1.012688 0.000000 0.000000 0.000000 0.000000 0.000000 0.000000 15.202472 4.800402 -3.363268 -30.711086 -1.005244 13.290660 26.007805 7.558520 -5.469537 -17.439686 -12.689756 -29.688301 0.000000 0.000000 0.000000 0.000000 0.000000 0.000000 -2.584092 4.103245 -27.626112 4.700096 -0.675594 0.579122 -1.843177 1.394891 -3.578263 0.000000 0.000000 0.000000 -2.762067 6.097541 -27.759648 3.813445 -2.860999 0.377089 18.441123 -24.323416 18.051327 0.000000 0.000000 0.000000
31.796994 73.436886 369.572787 1.705037 -1.265440 27.065891 0.089866 -0.736542 -26.979427 -0.063498 0.171665 0.101267 -1.186075 -2.084117 -0.735045 0.000000 0.000000 0.000000 -2.474887 -1.284396 0.363599 22.842113 -32.130190 6.892138 24.674627 35.208832 -40.598364 -86.477857 -57.780501 -17.201407 0.000000 0.000000 0.000000 0.000000 0.000000 0.000000 14.952313 3.686359 -3.840912 -28.087329 -3.236680 16.170232 22.947183 8.584511 -8.369491 -16.393305 -11.952772 -23.805774 0.000000 0.000000 0.000000 0.000000 0.000000 0.000000 -3.188761 4.371175 -27.045261 4.801901 -0.873917 0.536042 -1.452820 -2.132110 1.602669 0.000000 0.000000 0.000000 -3.321492 6.572064 -27.180557 4.252072 -3.060406 0.438692 19.392585 -25.062006 18.694028 0.000000 0.000000 0.000000
31.942212 73.474835 369.640745 1.832333 -1.269264 26.617623 0.141886 -0.836083 -26.524070 -0.051241 0.227327 0.109792 -1.554782 -2.250500 -0.748427 0.000000 0.000000 0.000000 -3.404315 -1.021589 0.464183 25.597182 -36.021536 9.317487 30.217638 42.810416 -52.330263 -115.154178 -64.077616 -45.889569 0.000000 0.000000 0.000000 0.000000 0.000000 0.000000 14.172373 3.191613 -3.922387 -25.175397 -5.052225 17.902269 21.330594 6.403871 -21.748138 -11.197499 -10.474477 -4.710742 0.000000 0.000000 0.000000 0.000000 0.000000 0.000000 -3.662518 4.529846 -26.600314 4.756294 -1.296248 0.444157 1.848976 -10.109315 4.768819 0.000000 0.000000 0.000000 -3.584840 6.824290 -26.724355 4.439408 -3.209712 0.462413 13.497843 -17.287389 7.735491 0.000000 0.000000 0.000000
31.979731 73.504494 369.665238 1.822076 -1.245257 26.233929 0.236700 -0.887978 -26.139927 -0.008382 0.251313 0.114820 -1.791834 -2.520649 -0.768580 0.000000 0.000000 0.000000 -4.392034 -0.753223 0.593238 27.159688 -37.246899 9.917883 33.057141 42.449049 -56.064140 -122.140945 -64.382271 -49.868507 0.000000 0.000000 0.000000 0.000000 0.000000 0.000000 12.510674 3.312190 -3.444588 -23.483950 -6.105075 19.345031 22.274839 6.441023 -25.946475 -13.617170 -12.906927 5.032474 0.000000 0.000000 0.000000 0.000000 0.000000 0.000000 -3.714720 4.501474 -26.217690 4.751585 -1.523574 0.417546 5.247003 -17.822813 7.719856 0.000000 0.000000 0.000000 -3.571495 6.807393 -26.334090 3.906526 -3.996697 0.290744 10.416310 -9.559619 -0.107288 0.000000 0.000000 0.000000
